<mxfile host="app.diagrams.net" modified="2024-07-15T09:58:01.134Z" agent="Mozilla/5.0 (Windows NT 10.0; Win64; x64) AppleWebKit/537.36 (KHTML, like Gecko) Chrome/126.0.0.0 Safari/537.36" etag="Iox4F6Ee9em7yim8k3XN" version="24.6.5" type="github">
  <diagram name="Page-1" id="2YBvvXClWsGukQMizWep">
    <mxGraphModel dx="1221" dy="725" grid="1" gridSize="10" guides="1" tooltips="1" connect="1" arrows="1" fold="1" page="1" pageScale="1" pageWidth="850" pageHeight="1100" math="0" shadow="0">
      <root>
        <mxCell id="0" />
        <mxCell id="1" parent="0" />
        <mxCell id="aM9ryv3xv72pqoxQDRHE-1" value="数据同步客户端" style="shape=umlLifeline;perimeter=lifelinePerimeter;whiteSpace=wrap;html=1;container=0;dropTarget=0;collapsible=0;recursiveResize=0;outlineConnect=0;portConstraint=eastwest;newEdgeStyle={&quot;edgeStyle&quot;:&quot;elbowEdgeStyle&quot;,&quot;elbow&quot;:&quot;vertical&quot;,&quot;curved&quot;:0,&quot;rounded&quot;:0};" parent="1" vertex="1">
          <mxGeometry x="40" y="40" width="100" height="1800" as="geometry" />
        </mxCell>
        <mxCell id="aM9ryv3xv72pqoxQDRHE-2" value="" style="html=1;points=[];perimeter=orthogonalPerimeter;outlineConnect=0;targetShapes=umlLifeline;portConstraint=eastwest;newEdgeStyle={&quot;edgeStyle&quot;:&quot;elbowEdgeStyle&quot;,&quot;elbow&quot;:&quot;vertical&quot;,&quot;curved&quot;:0,&quot;rounded&quot;:0};" parent="aM9ryv3xv72pqoxQDRHE-1" vertex="1">
          <mxGeometry x="45" y="70" width="10" height="110" as="geometry" />
        </mxCell>
        <mxCell id="aM9ryv3xv72pqoxQDRHE-3" value="时间查询" style="html=1;verticalAlign=bottom;startArrow=oval;endArrow=block;startSize=8;edgeStyle=elbowEdgeStyle;elbow=vertical;curved=0;rounded=0;" parent="aM9ryv3xv72pqoxQDRHE-1" target="aM9ryv3xv72pqoxQDRHE-2" edge="1">
          <mxGeometry relative="1" as="geometry">
            <mxPoint x="-15" y="70" as="sourcePoint" />
          </mxGeometry>
        </mxCell>
        <mxCell id="a8flHHELQ4XIELZlbhmN-11" value="" style="html=1;points=[[0,0,0,0,5],[0,1,0,0,-5],[1,0,0,0,5],[1,1,0,0,-5]];perimeter=orthogonalPerimeter;outlineConnect=0;targetShapes=umlLifeline;portConstraint=eastwest;newEdgeStyle={&quot;curved&quot;:0,&quot;rounded&quot;:0};" vertex="1" parent="aM9ryv3xv72pqoxQDRHE-1">
          <mxGeometry x="55" y="88" width="10" height="62" as="geometry" />
        </mxCell>
        <mxCell id="a8flHHELQ4XIELZlbhmN-14" value="" style="html=1;points=[[0,0,0,0,5],[0,1,0,0,-5],[1,0,0,0,5],[1,1,0,0,-5]];perimeter=orthogonalPerimeter;outlineConnect=0;targetShapes=umlLifeline;portConstraint=eastwest;newEdgeStyle={&quot;curved&quot;:0,&quot;rounded&quot;:0};" vertex="1" parent="aM9ryv3xv72pqoxQDRHE-1">
          <mxGeometry x="55" y="197" width="10" height="80" as="geometry" />
        </mxCell>
        <mxCell id="a8flHHELQ4XIELZlbhmN-22" value="" style="html=1;points=[[0,0,0,0,5],[0,1,0,0,-5],[1,0,0,0,5],[1,1,0,0,-5]];perimeter=orthogonalPerimeter;outlineConnect=0;targetShapes=umlLifeline;portConstraint=eastwest;newEdgeStyle={&quot;curved&quot;:0,&quot;rounded&quot;:0};" vertex="1" parent="aM9ryv3xv72pqoxQDRHE-1">
          <mxGeometry x="55" y="330" width="10" height="80" as="geometry" />
        </mxCell>
        <mxCell id="a8flHHELQ4XIELZlbhmN-26" value="" style="html=1;points=[[0,0,0,0,5],[0,1,0,0,-5],[1,0,0,0,5],[1,1,0,0,-5]];perimeter=orthogonalPerimeter;outlineConnect=0;targetShapes=umlLifeline;portConstraint=eastwest;newEdgeStyle={&quot;curved&quot;:0,&quot;rounded&quot;:0};" vertex="1" parent="aM9ryv3xv72pqoxQDRHE-1">
          <mxGeometry x="55" y="440" width="10" height="80" as="geometry" />
        </mxCell>
        <mxCell id="a8flHHELQ4XIELZlbhmN-28" value="" style="html=1;points=[[0,0,0,0,5],[0,1,0,0,-5],[1,0,0,0,5],[1,1,0,0,-5]];perimeter=orthogonalPerimeter;outlineConnect=0;targetShapes=umlLifeline;portConstraint=eastwest;newEdgeStyle={&quot;curved&quot;:0,&quot;rounded&quot;:0};" vertex="1" parent="aM9ryv3xv72pqoxQDRHE-1">
          <mxGeometry x="45" y="197" width="10" height="753" as="geometry" />
        </mxCell>
        <mxCell id="a8flHHELQ4XIELZlbhmN-29" value="数据导出" style="html=1;verticalAlign=bottom;startArrow=oval;endArrow=block;startSize=8;curved=0;rounded=0;entryX=0;entryY=0;entryDx=0;entryDy=5;" edge="1" target="a8flHHELQ4XIELZlbhmN-28" parent="aM9ryv3xv72pqoxQDRHE-1">
          <mxGeometry relative="1" as="geometry">
            <mxPoint x="-25" y="202" as="sourcePoint" />
          </mxGeometry>
        </mxCell>
        <mxCell id="a8flHHELQ4XIELZlbhmN-34" value="" style="html=1;points=[[0,0,0,0,5],[0,1,0,0,-5],[1,0,0,0,5],[1,1,0,0,-5]];perimeter=orthogonalPerimeter;outlineConnect=0;targetShapes=umlLifeline;portConstraint=eastwest;newEdgeStyle={&quot;curved&quot;:0,&quot;rounded&quot;:0};" vertex="1" parent="aM9ryv3xv72pqoxQDRHE-1">
          <mxGeometry x="55" y="560" width="10" height="80" as="geometry" />
        </mxCell>
        <mxCell id="a8flHHELQ4XIELZlbhmN-38" value="" style="html=1;points=[[0,0,0,0,5],[0,1,0,0,-5],[1,0,0,0,5],[1,1,0,0,-5]];perimeter=orthogonalPerimeter;outlineConnect=0;targetShapes=umlLifeline;portConstraint=eastwest;newEdgeStyle={&quot;curved&quot;:0,&quot;rounded&quot;:0};" vertex="1" parent="aM9ryv3xv72pqoxQDRHE-1">
          <mxGeometry x="55" y="690" width="10" height="80" as="geometry" />
        </mxCell>
        <mxCell id="a8flHHELQ4XIELZlbhmN-39" value="" style="html=1;points=[[0,0,0,0,5],[0,1,0,0,-5],[1,0,0,0,5],[1,1,0,0,-5]];perimeter=orthogonalPerimeter;outlineConnect=0;targetShapes=umlLifeline;portConstraint=eastwest;newEdgeStyle={&quot;curved&quot;:0,&quot;rounded&quot;:0};" vertex="1" parent="aM9ryv3xv72pqoxQDRHE-1">
          <mxGeometry x="45" y="984" width="10" height="816" as="geometry" />
        </mxCell>
        <mxCell id="a8flHHELQ4XIELZlbhmN-40" value="数据导入" style="html=1;verticalAlign=bottom;startArrow=oval;endArrow=block;startSize=8;curved=0;rounded=0;entryX=0;entryY=0;entryDx=0;entryDy=5;" edge="1" target="a8flHHELQ4XIELZlbhmN-39" parent="aM9ryv3xv72pqoxQDRHE-1">
          <mxGeometry relative="1" as="geometry">
            <mxPoint x="-25" y="989" as="sourcePoint" />
          </mxGeometry>
        </mxCell>
        <mxCell id="a8flHHELQ4XIELZlbhmN-47" value="" style="html=1;points=[[0,0,0,0,5],[0,1,0,0,-5],[1,0,0,0,5],[1,1,0,0,-5]];perimeter=orthogonalPerimeter;outlineConnect=0;targetShapes=umlLifeline;portConstraint=eastwest;newEdgeStyle={&quot;curved&quot;:0,&quot;rounded&quot;:0};" vertex="1" parent="aM9ryv3xv72pqoxQDRHE-1">
          <mxGeometry x="55" y="1004" width="10" height="80" as="geometry" />
        </mxCell>
        <mxCell id="a8flHHELQ4XIELZlbhmN-58" value="" style="html=1;points=[[0,0,0,0,5],[0,1,0,0,-5],[1,0,0,0,5],[1,1,0,0,-5]];perimeter=orthogonalPerimeter;outlineConnect=0;targetShapes=umlLifeline;portConstraint=eastwest;newEdgeStyle={&quot;curved&quot;:0,&quot;rounded&quot;:0};" vertex="1" parent="aM9ryv3xv72pqoxQDRHE-1">
          <mxGeometry x="55" y="1134" width="10" height="80" as="geometry" />
        </mxCell>
        <mxCell id="a8flHHELQ4XIELZlbhmN-62" value="" style="html=1;points=[[0,0,0,0,5],[0,1,0,0,-5],[1,0,0,0,5],[1,1,0,0,-5]];perimeter=orthogonalPerimeter;outlineConnect=0;targetShapes=umlLifeline;portConstraint=eastwest;newEdgeStyle={&quot;curved&quot;:0,&quot;rounded&quot;:0};" vertex="1" parent="aM9ryv3xv72pqoxQDRHE-1">
          <mxGeometry x="55" y="1264" width="10" height="80" as="geometry" />
        </mxCell>
        <mxCell id="a8flHHELQ4XIELZlbhmN-72" value="" style="html=1;points=[[0,0,0,0,5],[0,1,0,0,-5],[1,0,0,0,5],[1,1,0,0,-5]];perimeter=orthogonalPerimeter;outlineConnect=0;targetShapes=umlLifeline;portConstraint=eastwest;newEdgeStyle={&quot;curved&quot;:0,&quot;rounded&quot;:0};" vertex="1" parent="aM9ryv3xv72pqoxQDRHE-1">
          <mxGeometry x="55" y="1394" width="10" height="80" as="geometry" />
        </mxCell>
        <mxCell id="a8flHHELQ4XIELZlbhmN-76" value="" style="html=1;points=[[0,0,0,0,5],[0,1,0,0,-5],[1,0,0,0,5],[1,1,0,0,-5]];perimeter=orthogonalPerimeter;outlineConnect=0;targetShapes=umlLifeline;portConstraint=eastwest;newEdgeStyle={&quot;curved&quot;:0,&quot;rounded&quot;:0};" vertex="1" parent="aM9ryv3xv72pqoxQDRHE-1">
          <mxGeometry x="55" y="1524" width="10" height="80" as="geometry" />
        </mxCell>
        <mxCell id="a8flHHELQ4XIELZlbhmN-80" value="" style="html=1;points=[[0,0,0,0,5],[0,1,0,0,-5],[1,0,0,0,5],[1,1,0,0,-5]];perimeter=orthogonalPerimeter;outlineConnect=0;targetShapes=umlLifeline;portConstraint=eastwest;newEdgeStyle={&quot;curved&quot;:0,&quot;rounded&quot;:0};" vertex="1" parent="aM9ryv3xv72pqoxQDRHE-1">
          <mxGeometry x="55" y="840" width="10" height="80" as="geometry" />
        </mxCell>
        <mxCell id="a8flHHELQ4XIELZlbhmN-84" value="" style="html=1;points=[[0,0,0,0,5],[0,1,0,0,-5],[1,0,0,0,5],[1,1,0,0,-5]];perimeter=orthogonalPerimeter;outlineConnect=0;targetShapes=umlLifeline;portConstraint=eastwest;newEdgeStyle={&quot;curved&quot;:0,&quot;rounded&quot;:0};" vertex="1" parent="aM9ryv3xv72pqoxQDRHE-1">
          <mxGeometry x="55" y="1680" width="10" height="80" as="geometry" />
        </mxCell>
        <mxCell id="aM9ryv3xv72pqoxQDRHE-5" value="权限系统&lt;div&gt;互联网&lt;/div&gt;" style="shape=umlLifeline;perimeter=lifelinePerimeter;whiteSpace=wrap;html=1;container=0;dropTarget=0;collapsible=0;recursiveResize=0;outlineConnect=0;portConstraint=eastwest;newEdgeStyle={&quot;edgeStyle&quot;:&quot;elbowEdgeStyle&quot;,&quot;elbow&quot;:&quot;vertical&quot;,&quot;curved&quot;:0,&quot;rounded&quot;:0};" parent="1" vertex="1">
          <mxGeometry x="220" y="40" width="100" height="1800" as="geometry" />
        </mxCell>
        <mxCell id="a8flHHELQ4XIELZlbhmN-15" value="" style="html=1;points=[[0,0,0,0,5],[0,1,0,0,-5],[1,0,0,0,5],[1,1,0,0,-5]];perimeter=orthogonalPerimeter;outlineConnect=0;targetShapes=umlLifeline;portConstraint=eastwest;newEdgeStyle={&quot;curved&quot;:0,&quot;rounded&quot;:0};" vertex="1" parent="aM9ryv3xv72pqoxQDRHE-5">
          <mxGeometry x="45" y="197" width="10" height="80" as="geometry" />
        </mxCell>
        <mxCell id="a8flHHELQ4XIELZlbhmN-19" value="" style="html=1;points=[[0,0,0,0,5],[0,1,0,0,-5],[1,0,0,0,5],[1,1,0,0,-5]];perimeter=orthogonalPerimeter;outlineConnect=0;targetShapes=umlLifeline;portConstraint=eastwest;newEdgeStyle={&quot;curved&quot;:0,&quot;rounded&quot;:0};" vertex="1" parent="aM9ryv3xv72pqoxQDRHE-5">
          <mxGeometry x="45" y="330" width="10" height="80" as="geometry" />
        </mxCell>
        <mxCell id="a8flHHELQ4XIELZlbhmN-1" value="项目管理系统&lt;div&gt;互联网&lt;br&gt;&lt;/div&gt;" style="shape=umlLifeline;perimeter=lifelinePerimeter;whiteSpace=wrap;html=1;container=0;dropTarget=0;collapsible=0;recursiveResize=0;outlineConnect=0;portConstraint=eastwest;newEdgeStyle={&quot;edgeStyle&quot;:&quot;elbowEdgeStyle&quot;,&quot;elbow&quot;:&quot;vertical&quot;,&quot;curved&quot;:0,&quot;rounded&quot;:0};" vertex="1" parent="1">
          <mxGeometry x="375" y="40" width="100" height="1800" as="geometry" />
        </mxCell>
        <mxCell id="a8flHHELQ4XIELZlbhmN-23" value="" style="html=1;points=[[0,0,0,0,5],[0,1,0,0,-5],[1,0,0,0,5],[1,1,0,0,-5]];perimeter=orthogonalPerimeter;outlineConnect=0;targetShapes=umlLifeline;portConstraint=eastwest;newEdgeStyle={&quot;curved&quot;:0,&quot;rounded&quot;:0};" vertex="1" parent="a8flHHELQ4XIELZlbhmN-1">
          <mxGeometry x="45" y="440" width="10" height="80" as="geometry" />
        </mxCell>
        <mxCell id="a8flHHELQ4XIELZlbhmN-3" value="信息图谱&lt;div&gt;互联网&lt;br&gt;&lt;/div&gt;" style="shape=umlLifeline;perimeter=lifelinePerimeter;whiteSpace=wrap;html=1;container=0;dropTarget=0;collapsible=0;recursiveResize=0;outlineConnect=0;portConstraint=eastwest;newEdgeStyle={&quot;edgeStyle&quot;:&quot;elbowEdgeStyle&quot;,&quot;elbow&quot;:&quot;vertical&quot;,&quot;curved&quot;:0,&quot;rounded&quot;:0};" vertex="1" parent="1">
          <mxGeometry x="530" y="40" width="100" height="1800" as="geometry" />
        </mxCell>
        <mxCell id="a8flHHELQ4XIELZlbhmN-31" value="" style="html=1;points=[[0,0,0,0,5],[0,1,0,0,-5],[1,0,0,0,5],[1,1,0,0,-5]];perimeter=orthogonalPerimeter;outlineConnect=0;targetShapes=umlLifeline;portConstraint=eastwest;newEdgeStyle={&quot;curved&quot;:0,&quot;rounded&quot;:0};" vertex="1" parent="a8flHHELQ4XIELZlbhmN-3">
          <mxGeometry x="45" y="560" width="10" height="80" as="geometry" />
        </mxCell>
        <mxCell id="a8flHHELQ4XIELZlbhmN-35" value="" style="html=1;points=[[0,0,0,0,5],[0,1,0,0,-5],[1,0,0,0,5],[1,1,0,0,-5]];perimeter=orthogonalPerimeter;outlineConnect=0;targetShapes=umlLifeline;portConstraint=eastwest;newEdgeStyle={&quot;curved&quot;:0,&quot;rounded&quot;:0};" vertex="1" parent="a8flHHELQ4XIELZlbhmN-3">
          <mxGeometry x="45" y="690" width="10" height="80" as="geometry" />
        </mxCell>
        <mxCell id="a8flHHELQ4XIELZlbhmN-77" value="" style="html=1;points=[[0,0,0,0,5],[0,1,0,0,-5],[1,0,0,0,5],[1,1,0,0,-5]];perimeter=orthogonalPerimeter;outlineConnect=0;targetShapes=umlLifeline;portConstraint=eastwest;newEdgeStyle={&quot;curved&quot;:0,&quot;rounded&quot;:0};" vertex="1" parent="a8flHHELQ4XIELZlbhmN-3">
          <mxGeometry x="45" y="840" width="10" height="80" as="geometry" />
        </mxCell>
        <mxCell id="a8flHHELQ4XIELZlbhmN-5" value="基础信息平台&lt;div&gt;保密网&lt;/div&gt;" style="shape=umlLifeline;perimeter=lifelinePerimeter;whiteSpace=wrap;html=1;container=0;dropTarget=0;collapsible=0;recursiveResize=0;outlineConnect=0;portConstraint=eastwest;newEdgeStyle={&quot;edgeStyle&quot;:&quot;elbowEdgeStyle&quot;,&quot;elbow&quot;:&quot;vertical&quot;,&quot;curved&quot;:0,&quot;rounded&quot;:0};fillColor=#f8cecc;strokeColor=#b85450;" vertex="1" parent="1">
          <mxGeometry x="700" y="39" width="100" height="1801" as="geometry" />
        </mxCell>
        <mxCell id="a8flHHELQ4XIELZlbhmN-6" value="" style="html=1;points=[];perimeter=orthogonalPerimeter;outlineConnect=0;targetShapes=umlLifeline;portConstraint=eastwest;newEdgeStyle={&quot;edgeStyle&quot;:&quot;elbowEdgeStyle&quot;,&quot;elbow&quot;:&quot;vertical&quot;,&quot;curved&quot;:0,&quot;rounded&quot;:0};" vertex="1" parent="a8flHHELQ4XIELZlbhmN-5">
          <mxGeometry x="45" y="89" width="10" height="61" as="geometry" />
        </mxCell>
        <mxCell id="a8flHHELQ4XIELZlbhmN-69" value="" style="html=1;points=[[0,0,0,0,5],[0,1,0,0,-5],[1,0,0,0,5],[1,1,0,0,-5]];perimeter=orthogonalPerimeter;outlineConnect=0;targetShapes=umlLifeline;portConstraint=eastwest;newEdgeStyle={&quot;curved&quot;:0,&quot;rounded&quot;:0};" vertex="1" parent="a8flHHELQ4XIELZlbhmN-5">
          <mxGeometry x="45" y="1395" width="10" height="80" as="geometry" />
        </mxCell>
        <mxCell id="a8flHHELQ4XIELZlbhmN-73" value="" style="html=1;points=[[0,0,0,0,5],[0,1,0,0,-5],[1,0,0,0,5],[1,1,0,0,-5]];perimeter=orthogonalPerimeter;outlineConnect=0;targetShapes=umlLifeline;portConstraint=eastwest;newEdgeStyle={&quot;curved&quot;:0,&quot;rounded&quot;:0};" vertex="1" parent="a8flHHELQ4XIELZlbhmN-5">
          <mxGeometry x="45" y="1525" width="10" height="80" as="geometry" />
        </mxCell>
        <mxCell id="a8flHHELQ4XIELZlbhmN-81" value="" style="html=1;points=[[0,0,0,0,5],[0,1,0,0,-5],[1,0,0,0,5],[1,1,0,0,-5]];perimeter=orthogonalPerimeter;outlineConnect=0;targetShapes=umlLifeline;portConstraint=eastwest;newEdgeStyle={&quot;curved&quot;:0,&quot;rounded&quot;:0};" vertex="1" parent="a8flHHELQ4XIELZlbhmN-5">
          <mxGeometry x="45" y="1681" width="10" height="80" as="geometry" />
        </mxCell>
        <mxCell id="a8flHHELQ4XIELZlbhmN-12" value="获取最近一次数据同步的时间" style="html=1;verticalAlign=bottom;endArrow=block;curved=0;rounded=0;exitX=1;exitY=0;exitDx=0;exitDy=5;exitPerimeter=0;" edge="1" parent="1" source="a8flHHELQ4XIELZlbhmN-11" target="a8flHHELQ4XIELZlbhmN-6">
          <mxGeometry width="80" relative="1" as="geometry">
            <mxPoint x="150" y="150" as="sourcePoint" />
            <mxPoint x="230" y="150" as="targetPoint" />
          </mxGeometry>
        </mxCell>
        <mxCell id="a8flHHELQ4XIELZlbhmN-13" value="时间" style="html=1;verticalAlign=bottom;endArrow=open;dashed=1;endSize=8;curved=0;rounded=0;entryX=1;entryY=1;entryDx=0;entryDy=-5;entryPerimeter=0;" edge="1" parent="1" target="a8flHHELQ4XIELZlbhmN-11">
          <mxGeometry relative="1" as="geometry">
            <mxPoint x="745" y="185.5" as="sourcePoint" />
            <mxPoint x="105" y="185.5" as="targetPoint" />
          </mxGeometry>
        </mxCell>
        <mxCell id="a8flHHELQ4XIELZlbhmN-16" value="接口获取组织架构数据(全量)" style="html=1;verticalAlign=bottom;endArrow=block;curved=0;rounded=0;entryX=0;entryY=0;entryDx=0;entryDy=5;exitX=1;exitY=0;exitDx=0;exitDy=5;exitPerimeter=0;" edge="1" target="a8flHHELQ4XIELZlbhmN-15" parent="1" source="a8flHHELQ4XIELZlbhmN-14">
          <mxGeometry relative="1" as="geometry">
            <mxPoint x="195" y="242" as="sourcePoint" />
          </mxGeometry>
        </mxCell>
        <mxCell id="a8flHHELQ4XIELZlbhmN-17" value="组织架构数据" style="html=1;verticalAlign=bottom;endArrow=open;dashed=1;endSize=8;curved=0;rounded=0;exitX=0;exitY=1;exitDx=0;exitDy=-5;entryX=1;entryY=1;entryDx=0;entryDy=-5;entryPerimeter=0;" edge="1" source="a8flHHELQ4XIELZlbhmN-15" parent="1" target="a8flHHELQ4XIELZlbhmN-14">
          <mxGeometry relative="1" as="geometry">
            <mxPoint x="195" y="312" as="targetPoint" />
          </mxGeometry>
        </mxCell>
        <mxCell id="a8flHHELQ4XIELZlbhmN-20" value="接口获取用户数据(全量)" style="html=1;verticalAlign=bottom;endArrow=block;curved=0;rounded=0;entryX=0;entryY=0;entryDx=0;entryDy=5;exitX=1;exitY=0;exitDx=0;exitDy=5;exitPerimeter=0;" edge="1" target="a8flHHELQ4XIELZlbhmN-19" parent="1" source="a8flHHELQ4XIELZlbhmN-22">
          <mxGeometry relative="1" as="geometry">
            <mxPoint x="195" y="375" as="sourcePoint" />
          </mxGeometry>
        </mxCell>
        <mxCell id="a8flHHELQ4XIELZlbhmN-21" value="取用户数据" style="html=1;verticalAlign=bottom;endArrow=open;dashed=1;endSize=8;curved=0;rounded=0;exitX=0;exitY=1;exitDx=0;exitDy=-5;entryX=1;entryY=1;entryDx=0;entryDy=-5;entryPerimeter=0;" edge="1" source="a8flHHELQ4XIELZlbhmN-19" parent="1" target="a8flHHELQ4XIELZlbhmN-22">
          <mxGeometry relative="1" as="geometry">
            <mxPoint x="195" y="445" as="targetPoint" />
          </mxGeometry>
        </mxCell>
        <mxCell id="a8flHHELQ4XIELZlbhmN-24" value="接口获取项目信息(全量)" style="html=1;verticalAlign=bottom;endArrow=block;curved=0;rounded=0;entryX=0;entryY=0;entryDx=0;entryDy=5;exitX=1;exitY=0;exitDx=0;exitDy=5;exitPerimeter=0;" edge="1" target="a8flHHELQ4XIELZlbhmN-23" parent="1" source="a8flHHELQ4XIELZlbhmN-26">
          <mxGeometry relative="1" as="geometry">
            <mxPoint x="350" y="485" as="sourcePoint" />
          </mxGeometry>
        </mxCell>
        <mxCell id="a8flHHELQ4XIELZlbhmN-25" value="项目信息" style="html=1;verticalAlign=bottom;endArrow=open;dashed=1;endSize=8;curved=0;rounded=0;exitX=0;exitY=1;exitDx=0;exitDy=-5;entryX=1;entryY=1;entryDx=0;entryDy=-5;entryPerimeter=0;" edge="1" source="a8flHHELQ4XIELZlbhmN-23" parent="1" target="a8flHHELQ4XIELZlbhmN-26">
          <mxGeometry relative="1" as="geometry">
            <mxPoint x="350" y="555" as="targetPoint" />
          </mxGeometry>
        </mxCell>
        <mxCell id="a8flHHELQ4XIELZlbhmN-32" value="获取登记数据(增量)" style="html=1;verticalAlign=bottom;endArrow=block;curved=0;rounded=0;entryX=0;entryY=0;entryDx=0;entryDy=5;exitX=1;exitY=0;exitDx=0;exitDy=5;exitPerimeter=0;" edge="1" target="a8flHHELQ4XIELZlbhmN-31" parent="1" source="a8flHHELQ4XIELZlbhmN-34">
          <mxGeometry relative="1" as="geometry">
            <mxPoint x="505" y="605" as="sourcePoint" />
          </mxGeometry>
        </mxCell>
        <mxCell id="a8flHHELQ4XIELZlbhmN-33" value="登记数据" style="html=1;verticalAlign=bottom;endArrow=open;dashed=1;endSize=8;curved=0;rounded=0;exitX=0;exitY=1;exitDx=0;exitDy=-5;entryX=1;entryY=1;entryDx=0;entryDy=-5;entryPerimeter=0;" edge="1" source="a8flHHELQ4XIELZlbhmN-31" parent="1" target="a8flHHELQ4XIELZlbhmN-34">
          <mxGeometry relative="1" as="geometry">
            <mxPoint x="505" y="675" as="targetPoint" />
          </mxGeometry>
        </mxCell>
        <mxCell id="a8flHHELQ4XIELZlbhmN-36" value="获取登记文件信息数据(增量)" style="html=1;verticalAlign=bottom;endArrow=block;curved=0;rounded=0;entryX=0;entryY=0;entryDx=0;entryDy=5;exitX=1;exitY=0;exitDx=0;exitDy=5;exitPerimeter=0;" edge="1" target="a8flHHELQ4XIELZlbhmN-35" parent="1" source="a8flHHELQ4XIELZlbhmN-38">
          <mxGeometry relative="1" as="geometry">
            <mxPoint x="505" y="735" as="sourcePoint" />
          </mxGeometry>
        </mxCell>
        <mxCell id="a8flHHELQ4XIELZlbhmN-37" value="登记文件信息数据(增量)" style="html=1;verticalAlign=bottom;endArrow=open;dashed=1;endSize=8;curved=0;rounded=0;exitX=0;exitY=1;exitDx=0;exitDy=-5;entryX=1;entryY=1;entryDx=0;entryDy=-5;entryPerimeter=0;" edge="1" source="a8flHHELQ4XIELZlbhmN-35" parent="1" target="a8flHHELQ4XIELZlbhmN-38">
          <mxGeometry relative="1" as="geometry">
            <mxPoint x="505" y="805" as="targetPoint" />
          </mxGeometry>
        </mxCell>
        <mxCell id="a8flHHELQ4XIELZlbhmN-48" value="互联网数据同步到保密网" style="text;align=center;fontStyle=1;verticalAlign=middle;spacingLeft=3;spacingRight=3;strokeColor=none;rotatable=0;points=[[0,0.5],[1,0.5]];portConstraint=eastwest;html=1;" vertex="1" parent="1">
          <mxGeometry x="375" width="80" height="26" as="geometry" />
        </mxCell>
        <mxCell id="a8flHHELQ4XIELZlbhmN-49" value="数据库服务&lt;div&gt;保密网&lt;/div&gt;" style="shape=umlLifeline;perimeter=lifelinePerimeter;whiteSpace=wrap;html=1;container=0;dropTarget=0;collapsible=0;recursiveResize=0;outlineConnect=0;portConstraint=eastwest;newEdgeStyle={&quot;edgeStyle&quot;:&quot;elbowEdgeStyle&quot;,&quot;elbow&quot;:&quot;vertical&quot;,&quot;curved&quot;:0,&quot;rounded&quot;:0};fillColor=#f8cecc;strokeColor=#b85450;" vertex="1" parent="1">
          <mxGeometry x="880" y="39" width="100" height="1801" as="geometry" />
        </mxCell>
        <mxCell id="a8flHHELQ4XIELZlbhmN-52" value="" style="html=1;points=[[0,0,0,0,5],[0,1,0,0,-5],[1,0,0,0,5],[1,1,0,0,-5]];perimeter=orthogonalPerimeter;outlineConnect=0;targetShapes=umlLifeline;portConstraint=eastwest;newEdgeStyle={&quot;curved&quot;:0,&quot;rounded&quot;:0};" vertex="1" parent="a8flHHELQ4XIELZlbhmN-49">
          <mxGeometry x="45" y="1005" width="10" height="80" as="geometry" />
        </mxCell>
        <mxCell id="a8flHHELQ4XIELZlbhmN-55" value="" style="html=1;points=[[0,0,0,0,5],[0,1,0,0,-5],[1,0,0,0,5],[1,1,0,0,-5]];perimeter=orthogonalPerimeter;outlineConnect=0;targetShapes=umlLifeline;portConstraint=eastwest;newEdgeStyle={&quot;curved&quot;:0,&quot;rounded&quot;:0};" vertex="1" parent="a8flHHELQ4XIELZlbhmN-49">
          <mxGeometry x="45" y="1135" width="10" height="80" as="geometry" />
        </mxCell>
        <mxCell id="a8flHHELQ4XIELZlbhmN-63" value="" style="html=1;points=[[0,0,0,0,5],[0,1,0,0,-5],[1,0,0,0,5],[1,1,0,0,-5]];perimeter=orthogonalPerimeter;outlineConnect=0;targetShapes=umlLifeline;portConstraint=eastwest;newEdgeStyle={&quot;curved&quot;:0,&quot;rounded&quot;:0};" vertex="1" parent="a8flHHELQ4XIELZlbhmN-49">
          <mxGeometry x="45" y="1265" width="10" height="80" as="geometry" />
        </mxCell>
        <mxCell id="a8flHHELQ4XIELZlbhmN-53" value="导入组织架构数据（直接导入到数据库）" style="html=1;verticalAlign=bottom;endArrow=block;curved=0;rounded=0;entryX=0;entryY=0;entryDx=0;entryDy=5;exitX=1;exitY=0;exitDx=0;exitDy=5;exitPerimeter=0;" edge="1" target="a8flHHELQ4XIELZlbhmN-52" parent="1" source="a8flHHELQ4XIELZlbhmN-47">
          <mxGeometry relative="1" as="geometry">
            <mxPoint x="855" y="1049" as="sourcePoint" />
          </mxGeometry>
        </mxCell>
        <mxCell id="a8flHHELQ4XIELZlbhmN-54" value="导入结果" style="html=1;verticalAlign=bottom;endArrow=open;dashed=1;endSize=8;curved=0;rounded=0;exitX=0;exitY=1;exitDx=0;exitDy=-5;entryX=1;entryY=1;entryDx=0;entryDy=-5;entryPerimeter=0;" edge="1" source="a8flHHELQ4XIELZlbhmN-52" parent="1" target="a8flHHELQ4XIELZlbhmN-47">
          <mxGeometry relative="1" as="geometry">
            <mxPoint x="855" y="1119" as="targetPoint" />
            <mxPoint as="offset" />
          </mxGeometry>
        </mxCell>
        <mxCell id="a8flHHELQ4XIELZlbhmN-56" value="导入用户数据（直接导入到数据库）" style="html=1;verticalAlign=bottom;endArrow=block;curved=0;rounded=0;entryX=0;entryY=0;entryDx=0;entryDy=5;exitX=1;exitY=0;exitDx=0;exitDy=5;exitPerimeter=0;" edge="1" target="a8flHHELQ4XIELZlbhmN-55" parent="1" source="a8flHHELQ4XIELZlbhmN-58">
          <mxGeometry relative="1" as="geometry">
            <mxPoint x="855" y="1179" as="sourcePoint" />
          </mxGeometry>
        </mxCell>
        <mxCell id="a8flHHELQ4XIELZlbhmN-57" value="导入结果" style="html=1;verticalAlign=bottom;endArrow=open;dashed=1;endSize=8;curved=0;rounded=0;exitX=0;exitY=1;exitDx=0;exitDy=-5;entryX=1;entryY=1;entryDx=0;entryDy=-5;entryPerimeter=0;" edge="1" source="a8flHHELQ4XIELZlbhmN-55" parent="1" target="a8flHHELQ4XIELZlbhmN-58">
          <mxGeometry relative="1" as="geometry">
            <mxPoint x="855" y="1249" as="targetPoint" />
          </mxGeometry>
        </mxCell>
        <mxCell id="a8flHHELQ4XIELZlbhmN-64" value="导入项目信息数据（直接导入到数据库）" style="html=1;verticalAlign=bottom;endArrow=block;curved=0;rounded=0;entryX=0;entryY=0;entryDx=0;entryDy=5;exitX=1;exitY=0;exitDx=0;exitDy=5;exitPerimeter=0;" edge="1" target="a8flHHELQ4XIELZlbhmN-63" parent="1" source="a8flHHELQ4XIELZlbhmN-62">
          <mxGeometry relative="1" as="geometry">
            <mxPoint x="855" y="1309" as="sourcePoint" />
          </mxGeometry>
        </mxCell>
        <mxCell id="a8flHHELQ4XIELZlbhmN-65" value="导入结果" style="html=1;verticalAlign=bottom;endArrow=open;dashed=1;endSize=8;curved=0;rounded=0;exitX=0;exitY=1;exitDx=0;exitDy=-5;" edge="1" source="a8flHHELQ4XIELZlbhmN-63" parent="1" target="a8flHHELQ4XIELZlbhmN-62">
          <mxGeometry relative="1" as="geometry">
            <mxPoint x="855" y="1379" as="targetPoint" />
          </mxGeometry>
        </mxCell>
        <mxCell id="a8flHHELQ4XIELZlbhmN-70" value="导入登记数据（增量）" style="html=1;verticalAlign=bottom;endArrow=block;curved=0;rounded=0;entryX=0;entryY=0;entryDx=0;entryDy=5;exitX=1;exitY=0;exitDx=0;exitDy=5;exitPerimeter=0;" edge="1" target="a8flHHELQ4XIELZlbhmN-69" parent="1" source="a8flHHELQ4XIELZlbhmN-72">
          <mxGeometry relative="1" as="geometry">
            <mxPoint x="675" y="1439" as="sourcePoint" />
            <mxPoint as="offset" />
          </mxGeometry>
        </mxCell>
        <mxCell id="a8flHHELQ4XIELZlbhmN-71" value="导入结果" style="html=1;verticalAlign=bottom;endArrow=open;dashed=1;endSize=8;curved=0;rounded=0;exitX=0;exitY=1;exitDx=0;exitDy=-5;entryX=1;entryY=1;entryDx=0;entryDy=-5;entryPerimeter=0;" edge="1" source="a8flHHELQ4XIELZlbhmN-69" parent="1" target="a8flHHELQ4XIELZlbhmN-72">
          <mxGeometry relative="1" as="geometry">
            <mxPoint x="675" y="1509" as="targetPoint" />
          </mxGeometry>
        </mxCell>
        <mxCell id="a8flHHELQ4XIELZlbhmN-74" value="导入登记文件信息数据（增量）" style="html=1;verticalAlign=bottom;endArrow=block;curved=0;rounded=0;entryX=0;entryY=0;entryDx=0;entryDy=5;exitX=1;exitY=0;exitDx=0;exitDy=5;exitPerimeter=0;" edge="1" target="a8flHHELQ4XIELZlbhmN-73" parent="1" source="a8flHHELQ4XIELZlbhmN-76">
          <mxGeometry relative="1" as="geometry">
            <mxPoint x="675" y="1569" as="sourcePoint" />
          </mxGeometry>
        </mxCell>
        <mxCell id="a8flHHELQ4XIELZlbhmN-75" value="导入结果" style="html=1;verticalAlign=bottom;endArrow=open;dashed=1;endSize=8;curved=0;rounded=0;exitX=0;exitY=1;exitDx=0;exitDy=-5;entryX=1;entryY=1;entryDx=0;entryDy=-5;entryPerimeter=0;" edge="1" source="a8flHHELQ4XIELZlbhmN-73" parent="1" target="a8flHHELQ4XIELZlbhmN-76">
          <mxGeometry relative="1" as="geometry">
            <mxPoint x="675" y="1639" as="targetPoint" />
          </mxGeometry>
        </mxCell>
        <mxCell id="a8flHHELQ4XIELZlbhmN-78" value="获取数据使用审批记录信息(增量)" style="html=1;verticalAlign=bottom;endArrow=block;curved=0;rounded=0;entryX=0;entryY=0;entryDx=0;entryDy=5;" edge="1" target="a8flHHELQ4XIELZlbhmN-77" parent="1" source="a8flHHELQ4XIELZlbhmN-80">
          <mxGeometry relative="1" as="geometry">
            <mxPoint x="505" y="885" as="sourcePoint" />
          </mxGeometry>
        </mxCell>
        <mxCell id="a8flHHELQ4XIELZlbhmN-79" value="审批通过数据" style="html=1;verticalAlign=bottom;endArrow=open;dashed=1;endSize=8;curved=0;rounded=0;exitX=0;exitY=1;exitDx=0;exitDy=-5;entryX=1;entryY=1;entryDx=0;entryDy=-5;entryPerimeter=0;" edge="1" source="a8flHHELQ4XIELZlbhmN-77" parent="1" target="a8flHHELQ4XIELZlbhmN-80">
          <mxGeometry relative="1" as="geometry">
            <mxPoint x="505" y="955" as="targetPoint" />
          </mxGeometry>
        </mxCell>
        <mxCell id="a8flHHELQ4XIELZlbhmN-82" value="数据使用审批记录信息（增量）" style="html=1;verticalAlign=bottom;endArrow=block;curved=0;rounded=0;entryX=0;entryY=0;entryDx=0;entryDy=5;exitX=1;exitY=0;exitDx=0;exitDy=5;exitPerimeter=0;" edge="1" target="a8flHHELQ4XIELZlbhmN-81" parent="1" source="a8flHHELQ4XIELZlbhmN-84">
          <mxGeometry relative="1" as="geometry">
            <mxPoint x="675" y="1725" as="sourcePoint" />
          </mxGeometry>
        </mxCell>
        <mxCell id="a8flHHELQ4XIELZlbhmN-83" value="导入结果" style="html=1;verticalAlign=bottom;endArrow=open;dashed=1;endSize=8;curved=0;rounded=0;exitX=0;exitY=1;exitDx=0;exitDy=-5;entryX=1;entryY=1;entryDx=0;entryDy=-5;entryPerimeter=0;" edge="1" source="a8flHHELQ4XIELZlbhmN-81" parent="1" target="a8flHHELQ4XIELZlbhmN-84">
          <mxGeometry relative="1" as="geometry">
            <mxPoint x="675" y="1795" as="targetPoint" />
          </mxGeometry>
        </mxCell>
      </root>
    </mxGraphModel>
  </diagram>
</mxfile>
